<svg xmlns="http://www.w3.org/2000/svg" width="276.5639953613281" height="405.059814453125" viewBox="-42.12331008911133 -99.88496398925781 276.5639953613281 405.059814453125"><title>Neo4j Graph Visualization</title><desc>Created using Neo4j (http://www.neo4j.com/)</desc><g class="layer relationships"><g class="relationship" transform="translate(78.9996836407131 -29.991284329155036) rotate(202.9378306412488)"><path class="outline" fill="#A5ABB6" stroke="none" d="M 24.018736134675446,-6.953439040707552 L 24.277555179777966,-5.987513214418485 A 68.77711586271086 68.77711586271086 0 0 1 29.91061436308705,-7.246143944814563 L 29.733698420675744,-8.230369909377941 A 69.77711586271086 69.77711586271086 0 0 0 24.018736134675446,-6.953439040707552 Z M 51.80716367903431,-8.649482957456598 L 51.66773715034393,-7.659250538729893 A 68.77711586271086 68.77711586271086 0 0 1 57.34451470486532,-6.6153618115935435 L 56.67861885210514,-3.690198104503495 L 64.28087933020213,-5.549132106334805 L 58.232375841878884,-10.515580087713609 L 57.566479989118704,-7.59041638062356 A 69.77711586271086 69.77711586271086 0 0 0 51.80716367903431,-8.649482957456598"/><text text-anchor="middle" pointer-events="none" font-size="8px" fill="#000000" x="40.76324200871177" y="-5.818552321215549" transform="rotate(180 40.76324200871177 -8.818552321215549)" font-family="sans-serif">road</text></g><g class="relationship" transform="translate(-2.6472790179883043 -64.54385765659481) rotate(358.386663865999)"><path class="outline" fill="#A5ABB6" stroke="none" d="M 21.40063509461097,-12.933012701892217 L 21.90063509461097,-12.06698729810778 A 86.30820527035873 86.30820527035873 0 0 1 40.14544853623204,-19.957435863203173 L 39.85683994895426,-20.914883033207616 A 87.30820527035873 87.30820527035873 0 0 0 21.40063509461097,-12.933012701892217 Z M 86.01883899338036,-22.07582201888934 L 85.77872294473782,-21.105077828495027 A 86.30820527035873 86.30820527035873 0 0 1 104.39709850591949,-14.141710285361462 L 103.02959141944179,-11.471518462957446 L 110.85546393927514,-11.395892387314165 L 106.22044128788976,-17.701966048566813 L 104.85293420141205,-15.0317742261628 A 87.30820527035873 87.30820527035873 0 0 0 86.01883899338036,-22.07582201888934"/><text text-anchor="middle" pointer-events="none" font-size="8px" fill="#000000" x="62.87226781066007" y="-21.10265486235444" font-family="sans-serif">twowheeler</text></g><g class="relationship" transform="translate(130.4070183292357 -68.29139471215296) rotate(442.5326275800981)"><path class="outline" fill="#A5ABB6" stroke="none" d="M 21.40063509461097,12.933012701892217 L 21.90063509461097,12.06698729810778 A 77.58986988194337 77.58986988194337 0 0 0 35.97262974767232,18.417849087450904 L 35.65399356068647,19.36572617882041 A 78.58986988194337 78.58986988194337 0 0 1 21.40063509461097,12.933012701892217 Z M 81.71303555598132,20.599553780654887 L 81.44560330864498,19.63597711370791 A 77.58986988194337 77.58986988194337 0 0 0 95.83742569581409,14.047602809914105 L 94.47867142620255,11.372946414260188 L 102.30474966394182,11.322952246762833 L 97.64909805529614,17.613811337452663 L 96.2903437856846,14.939154941798746 A 78.58986988194337 78.58986988194337 0 0 1 81.71303555598132,20.599553780654887"/><text text-anchor="middle" pointer-events="none" font-size="8px" fill="#000000" x="58.60445217059745" y="25.93405542188465" font-family="sans-serif">twowheeler</text></g><g class="relationship" transform="translate(146.5993938513283 55.24548405047181) rotate(421.1618574347315)"><path class="outline" fill="#A5ABB6" stroke="none" d="M 25 0.5 L 47.82805745393305 0.5 L 47.82805745393305 -0.5 L 25 -0.5 Z M 67.16399495393304 0.5 L 89.9920524078661 0.5 L 89.9920524078661 3.5 L 96.9920524078661 0 L 89.9920524078661 -3.5 L 89.9920524078661 -0.5 L 67.16399495393304 -0.5 Z"/><text text-anchor="middle" pointer-events="none" font-size="8px" fill="#000000" x="57.49602620393305" y="3" font-family="sans-serif">trek</text></g><g class="relationship" transform="translate(78.9996836407131 -29.991284329155036) rotate(202.9378306412488)"><path class="outline" fill="#A5ABB6" stroke="none" d="M 24.018736134675446,6.953439040707552 L 24.277555179777966,5.987513214418485 A 68.77711586271086 68.77711586271086 0 0 0 31.220085002690972,7.46849236975153 L 31.062208396593473,8.455951218133151 A 69.77711586271086 69.77711586271086 0 0 1 24.018736134675446,6.953439040707552 Z M 50.471048026467074,8.824470516835731 L 50.35076983367519,7.831730290825561 A 68.77711586271086 68.77711586271086 0 0 0 57.34451470486532,6.6153618115935435 L 56.67861885210514,3.690198104503495 L 64.28087933020213,5.549132106334805 L 58.232375841878884,10.515580087713609 L 57.566479989118704,7.59041638062356 A 69.77711586271086 69.77711586271086 0 0 1 50.471048026467074,8.824470516835731"/><text text-anchor="middle" pointer-events="none" font-size="8px" fill="#000000" x="40.76324200871177" y="11.818552321215549" transform="rotate(180 40.76324200871177 8.818552321215549)" font-family="sans-serif">trek</text></g><g class="relationship" transform="translate(-2.6472790179883043 -64.54385765659481) rotate(358.386663865999)"><path class="outline" fill="#A5ABB6" stroke="none" d="M 25 0.5 L 53.3855624796543 0.5 L 53.3855624796543 -0.5 L 25 -0.5 Z M 72.7214999796543 0.5 L 101.1070624593086 0.5 L 101.1070624593086 3.5 L 108.1070624593086 0 L 101.1070624593086 -3.5 L 101.1070624593086 -0.5 L 72.7214999796543 -0.5 Z"/><text text-anchor="middle" pointer-events="none" font-size="8px" fill="#000000" x="63.0535312296543" y="3" font-family="sans-serif">trek</text></g><g class="relationship" transform="translate(-2.6472790179883043 -64.54385765659481) rotate(358.386663865999)"><path class="outline" fill="#A5ABB6" stroke="none" d="M 21.40063509461097,12.933012701892217 L 21.90063509461097,12.06698729810778 A 86.30820527035873 86.30820527035873 0 0 0 51.9925281721963,22.635926384650958 L 51.8411843976771,23.624407574109966 A 87.30820527035873 87.30820527035873 0 0 1 21.40063509461097,12.933012701892217 Z M 73.91344597768615,24.179508078872246 L 73.8119811930137,23.18466894741863 A 86.30820527035873 86.30820527035873 0 0 0 104.39709850591949,14.141710285361462 L 103.02959141944179,11.471518462957446 L 110.85546393927514,11.395892387314165 L 106.22044128788976,17.701966048566813 L 104.85293420141205,15.0317742261628 A 87.30820527035873 87.30820527035873 0 0 1 73.91344597768615,24.179508078872246"/><text text-anchor="middle" pointer-events="none" font-size="8px" fill="#000000" x="62.872267810660105" y="27.10265486235444" font-family="sans-serif">road</text></g><g class="relationship" transform="translate(130.4070183292357 -68.29139471215296) rotate(442.5326275800981)"><path class="outline" fill="#A5ABB6" stroke="none" d="M 25 0.5 L 49.128807730528905 0.5 L 49.128807730528905 -0.5 L 25 -0.5 Z M 68.4647452305289 0.5 L 92.59355296105781 0.5 L 92.59355296105781 3.5 L 99.59355296105781 0 L 92.59355296105781 -3.5 L 92.59355296105781 -0.5 L 68.4647452305289 -0.5 Z"/><text text-anchor="middle" pointer-events="none" font-size="8px" fill="#000000" x="58.796776480528905" y="3" font-family="sans-serif">trek</text></g><g class="relationship" transform="translate(130.4070183292357 -68.29139471215296) rotate(442.5326275800981)"><path class="outline" fill="#A5ABB6" stroke="none" d="M 21.40063509461097,-12.933012701892217 L 21.90063509461097,-12.06698729810778 A 77.58986988194337 77.58986988194337 0 0 1 47.74312795395456,-21.373314074950116 L 47.576193248414576,-22.359282027819916 A 78.58986988194337 78.58986988194337 0 0 0 21.40063509461097,-12.933012701892217 Z M 69.64766673166129,-22.950531693837064 L 69.53375769084565,-21.95704051097711 A 77.58986988194337 77.58986988194337 0 0 1 95.83742569581409,-14.047602809914105 L 94.47867142620255,-11.372946414260188 L 102.30474966394182,-11.322952246762833 L 97.64909805529614,-17.613811337452663 L 96.2903437856846,-14.939154941798746 A 78.58986988194337 78.58986988194337 0 0 0 69.64766673166129,-22.950531693837064"/><text text-anchor="middle" pointer-events="none" font-size="8px" fill="#000000" x="58.604452170597426" y="-19.93405542188465" font-family="sans-serif">road</text></g><g class="relationship" transform="translate(78.9996836407131 -29.991284329155036) rotate(487.57464920125153)"><path class="outline" fill="#A5ABB6" stroke="none" d="M 21.40063509461097,12.933012701892217 L 21.90063509461097,12.06698729810778 A 55.11198943905423 55.11198943905423 0 0 0 38.184330641155725,18.28549170864084 L 37.97979621429661,19.264351079658667 A 56.11198943905423 56.11198943905423 0 0 1 21.40063509461097,12.933012701892217 Z M 57.38142999613666,19.888157952304866 L 57.24019814424152,18.898181405102733 A 55.11198943905423 55.11198943905423 0 0 0 73.88972659008442,13.738555421812105 L 72.5597203414641,11.049488040984523 L 80.38588485345217,11.083385405169297 L 75.66306825491151,17.32397859624888 L 74.33306200629119,14.634911215421297 A 56.11198943905423 56.11198943905423 0 0 1 57.38142999613666,19.888157952304866"/><text text-anchor="middle" pointer-events="none" font-size="8px" fill="#000000" x="47.6695007417766" y="22.921871108821968" transform="rotate(180 47.6695007417766 19.921871108821968)" font-family="sans-serif">trek</text></g><g class="relationship" transform="translate(16.315987035169314 51.47969769596086) rotate(464.2632334700818)"><path class="outline" fill="#A5ABB6" stroke="none" d="M 24.018736134675446,-6.953439040707552 L 24.277555179777966,-5.987513214418485 A 130.58237192350535 130.58237192350535 0 0 1 33.20994636377223,-8.047829175517364 L 33.01953158375096,-9.02953290452598 A 131.58237192350535 131.58237192350535 0 0 0 24.018736134675446,-6.953439040707552 Z M 79.41302762235951,-9.695295209816749 L 79.25086100898882,-8.708531818973796 A 130.58237192350535 130.58237192350535 0 0 1 88.2386942991672,-6.905377119171639 L 87.54570793661448,-3.986512630827593 L 95.16487583239542,-5.774886354605973 L 89.16267611590415,-10.797196436963702 L 88.46968975335143,-7.878331948619655 A 131.58237192350535 131.58237192350535 0 0 0 79.41302762235951,-9.695295209816749"/><text text-anchor="middle" pointer-events="none" font-size="8px" fill="#000000" x="56.193877426383466" y="-7.923504684289782" transform="rotate(180 56.193877426383466 -10.923504684289782)" font-family="sans-serif">twowheeler</text></g><g class="relationship" transform="translate(-13.123309493437842 167.28508779691794) rotate(374.18772844445107)"><path class="outline" fill="#A5ABB6" stroke="none" d="M 24.018736134675446,-6.953439040707552 L 24.277555179777966,-5.987513214418485 A 115.98805952387832 115.98805952387832 0 0 1 42.92230014456395,-9.380570111760747 L 42.82422820602844,-10.3757494397574 A 116.98805952387832 116.98805952387832 0 0 0 24.018736134675446,-6.953439040707552 Z M 62.21862423385045,-10.671235668103705 L 62.15091518493515,-9.67353055901836 A 115.98805952387832 115.98805952387832 0 0 1 80.89037319465035,-6.850046290842873 L 80.20255500074049,-3.9299596256689484 L 87.8185451123745,-5.731818282582182 L 81.80746411986351,-10.74349517774144 L 81.11964592595365,-7.823408512567515 A 116.98805952387832 116.98805952387832 0 0 0 62.21862423385045,-10.671235668103705"/><text text-anchor="middle" pointer-events="none" font-size="8px" fill="#000000" x="52.522908642501925" y="-7.4261929592309315" font-family="sans-serif">trek</text></g><g class="relationship" transform="translate(95.60839766113484 194.77366166029213) rotate(343.4371588659493)"><path class="outline" fill="#A5ABB6" stroke="none" d="M 24.018736134675446,6.953439040707552 L 24.277555179777966,5.987513214418485 A 120.83645748152583 120.83645748152583 0 0 0 44.13729035135017,9.564535781220997 L 44.04282348592494,10.56006378752555 A 121.83645748152583 121.83645748152583 0 0 1 24.018736134675446,6.953439040707552 Z M 63.4357411061817,10.849600743472521 L 63.37103625879512,9.851696297784116 A 120.83645748152583 120.83645748152583 0 0 0 83.32870604358757,6.869149015749032 L 82.6391035452079,3.949483213944223 L 90.25619333086208,5.746687486497265 L 84.24817604142713,10.762036751488775 L 83.55857354304746,7.842370949683967 A 121.83645748152583 121.83645748152583 0 0 1 63.4357411061817,10.849600743472521"/><text text-anchor="middle" pointer-events="none" font-size="8px" fill="#000000" x="53.74097592436232" y="13.591394607192996" font-family="sans-serif">trek</text></g><g class="relationship" transform="translate(78.9996836407131 -29.991284329155036) rotate(487.57464920125153)"><path class="outline" fill="#A5ABB6" stroke="none" d="M 25 0.5 L 26.375905471841 0.5 L 26.375905471841 -0.5 L 25 -0.5 Z M 69.41887422184101 0.5 L 70.794779693682 0.5 L 70.794779693682 3.5 L 77.794779693682 0 L 70.794779693682 -3.5 L 70.794779693682 -0.5 L 69.41887422184101 -0.5 Z"/><text text-anchor="middle" pointer-events="none" font-size="8px" fill="#000000" x="47.897389846841" y="3" transform="rotate(180 47.897389846841 0)" font-family="sans-serif">PublicTr…</text></g><g class="relationship" transform="translate(78.9996836407131 -29.991284329155036) rotate(487.57464920125153)"><path class="outline" fill="#A5ABB6" stroke="none" d="M 21.40063509461097,-12.933012701892217 L 21.90063509461097,-12.06698729810778 A 55.11198943905423 55.11198943905423 0 0 1 36.889885417315966,-17.998722869927335 L 36.661863447419215,-18.972378857042088 A 56.11198943905423 56.11198943905423 0 0 0 21.40063509461097,-12.933012701892217 Z M 58.71539645917872,-19.681450351409858 L 58.55039131967824,-18.69515764438094 A 55.11198943905423 55.11198943905423 0 0 1 73.88972659008442,-13.738555421812105 L 72.5597203414641,-11.049488040984523 L 80.38588485345217,-11.083385405169297 L 75.66306825491151,-17.32397859624888 L 74.33306200629119,-14.634911215421297 A 56.11198943905423 56.11198943905423 0 0 0 58.71539645917872,-19.681450351409858"/><text text-anchor="middle" pointer-events="none" font-size="8px" fill="#000000" x="47.66950074177659" y="-16.921871108821968" transform="rotate(180 47.66950074177659 -19.921871108821968)" font-family="sans-serif">road</text></g><g class="relationship" transform="translate(16.315987035169314 51.47969769596086) rotate(464.2632334700818)"><path class="outline" fill="#A5ABB6" stroke="none" d="M 24.018736134675446,6.953439040707552 L 24.277555179777966,5.987513214418485 A 130.58237192350535 130.58237192350535 0 0 0 46.58477463554472,9.930513619624094 L 46.4967843104844,10.926634948928807 A 131.58237192350535 131.58237192350535 0 0 1 24.018736134675446,6.953439040707552 Z M 65.88688765544954,11.204889467450698 L 65.82751703039537,10.206653458843164 A 130.58237192350535 130.58237192350535 0 0 0 88.2386942991672,6.905377119171639 L 87.54570793661448,3.986512630827593 L 95.16487583239542,5.774886354605973 L 89.16267611590415,10.797196436963702 L 88.46968975335143,7.878331948619655 A 131.58237192350535 131.58237192350535 0 0 1 65.88688765544954,11.204889467450698"/><text text-anchor="middle" pointer-events="none" font-size="8px" fill="#000000" x="56.19387742638347" y="13.923504684289782" transform="rotate(180 56.19387742638347 10.923504684289782)" font-family="sans-serif">trek</text></g><g class="relationship" transform="translate(-13.123309493437842 167.28508779691794) rotate(374.18772844445107)"><path class="outline" fill="#A5ABB6" stroke="none" d="M 24.018736134675446,6.953439040707552 L 24.277555179777966,5.987513214418485 A 115.98805952387832 115.98805952387832 0 0 0 29.588567115886143,7.277287413491649 L 29.37553736976758,8.254333127503358 A 116.98805952387832 116.98805952387832 0 0 1 24.018736134675446,6.953439040707552 Z M 75.72570027450334,8.960507983390073 L 75.54253434823129,7.977425970812831 A 115.98805952387832 115.98805952387832 0 0 0 80.89037319465035,6.850046290842873 L 80.20255500074049,3.9299596256689484 L 87.8185451123745,5.731818282582182 L 81.80746411986351,10.74349517774144 L 81.11964592595365,7.823408512567515 A 116.98805952387832 116.98805952387832 0 0 1 75.72570027450334,8.960507983390073"/><text text-anchor="middle" pointer-events="none" font-size="8px" fill="#000000" x="52.52290864250194" y="13.426192959230931" font-family="sans-serif">twowheeler</text></g><g class="relationship" transform="translate(95.60839766113484 194.77366166029213) rotate(343.4371588659493)"><path class="outline" fill="#A5ABB6" stroke="none" d="M 24.018736134675446,-6.953439040707552 L 24.277555179777966,-5.987513214418485 A 120.83645748152583 120.83645748152583 0 0 1 30.788392523987795,-7.540165579676497 L 30.58345487759481,-8.518940610565053 A 121.83645748152583 121.83645748152583 0 0 0 24.018736134675446,-6.953439040707552 Z M 76.95004520633996,-9.211195467946709 L 76.77441868263817,-8.226738600342827 A 120.83645748152583 120.83645748152583 0 0 1 83.32870604358757,-6.869149015749032 L 82.6391035452079,-3.949483213944223 L 90.25619333086208,-5.746687486497265 L 84.24817604142713,-10.762036751488775 L 83.55857354304746,-7.842370949683967 A 121.83645748152583 121.83645748152583 0 0 0 76.95004520633996,-9.211195467946709"/><text text-anchor="middle" pointer-events="none" font-size="8px" fill="#000000" x="53.74097592436227" y="-7.591394607192996" font-family="sans-serif">twowheeler</text></g><g class="relationship" transform="translate(16.315987035169314 51.47969769596086) rotate(361.6556491091035)"><path class="outline" fill="#A5ABB6" stroke="none" d="M 25 0.5 L 52.00094108914915 0.5 L 52.00094108914915 -0.5 L 25 -0.5 Z M 71.33687858914915 0.5 L 98.3378196782983 0.5 L 98.3378196782983 3.5 L 105.3378196782983 0 L 98.3378196782983 -3.5 L 98.3378196782983 -0.5 L 71.33687858914915 -0.5 Z"/><text text-anchor="middle" pointer-events="none" font-size="8px" fill="#000000" x="61.66890983914915" y="3" font-family="sans-serif">trek</text></g><g class="relationship" transform="translate(16.315987035169314 51.47969769596086) rotate(260.7174682175473)"><path class="outline" fill="#A5ABB6" stroke="none" d="M 25 0.5 L 45.613556528037805 0.5 L 45.613556528037805 -0.5 L 25 -0.5 Z M 64.9494940280378 0.5 L 85.56305055607561 0.5 L 85.56305055607561 3.5 L 92.56305055607561 0 L 85.56305055607561 -3.5 L 85.56305055607561 -0.5 L 64.9494940280378 -0.5 Z"/><text text-anchor="middle" pointer-events="none" font-size="8px" fill="#000000" x="55.281525278037805" y="3" transform="rotate(180 55.281525278037805 0)" font-family="sans-serif">trek</text></g><g class="relationship" transform="translate(-13.123309493437842 167.28508779691794) rotate(427.3819708311002)"><path class="outline" fill="#A5ABB6" stroke="none" d="M 24.018736134675446,-6.953439040707552 L 24.277555179777966,-5.987513214418485 A 127.55004339350762 127.55004339350762 0 0 1 32.455226846594975,-7.892587911472646 L 32.26052123845608,-8.873449637792561 A 128.55004339350762 128.55004339350762 0 0 0 24.018736134675446,-6.953439040707552 Z M 78.64640998577252,-9.547249408554649 L 78.48027644113631,-8.561146145530643 A 127.55004339350762 127.55004339350762 0 0 1 86.70983221782419,-6.894402250986211 L 86.01787094941311,-3.975294578594025 L 93.63641033147447,-5.766343903425709 L 87.6324472423723,-10.786545814175792 L 86.94048597396122,-7.867438141783605 A 128.55004339350762 128.55004339350762 0 0 0 78.64640998577252,-9.547249408554649"/><text text-anchor="middle" pointer-events="none" font-size="8px" fill="#000000" x="55.43008144361898" y="-7.820168174559598" font-family="sans-serif">twowheeler</text></g><g class="relationship" transform="translate(32.24331996838771 276.17482535708905) rotate(307.8982471954915)"><path class="outline" fill="#A5ABB6" stroke="none" d="M 21.40063509461097,12.933012701892217 L 21.90063509461097,12.06698729810778 A 55.48741606893708 55.48741606893708 0 0 0 37.0694498608566,18.057211396329805 L 36.84282382275455,19.031193243621722 A 56.48741606893708 56.48741606893708 0 0 1 21.40063509461097,12.933012701892217 Z M 58.8970435775029,19.737937781175944 L 58.73324248528917,18.751444394381288 A 55.48741606893708 55.48741606893708 0 0 0 74.25446341641292,13.744706237972734 L 72.92388495209457,11.055921949434103 L 80.75005650038946,11.088153869319664 L 76.02856803550407,17.32975195602424 L 74.69798957118572,14.64096766748561 A 56.48741606893708 56.48741606893708 0 0 1 58.8970435775029,19.737937781175944"/><text text-anchor="middle" pointer-events="none" font-size="8px" fill="#000000" x="47.851103589115795" y="22.97216595954577" font-family="sans-serif">road</text></g><g class="relationship" transform="translate(-13.123309493437842 167.28508779691794) rotate(427.3819708311002)"><path class="outline" fill="#A5ABB6" stroke="none" d="M 24.018736134675446,6.953439040707552 L 24.277555179777966,5.987513214418485 A 127.55004339350762 127.55004339350762 0 0 0 45.8225652136105,9.817143427157916 L 45.732660341021145,10.813093784296598 A 128.55004339350762 128.55004339350762 0 0 1 24.018736134675446,6.953439040707552 Z M 65.1236165085052,11.094766124168814 L 65.06267774342945,10.096624617712422 A 127.55004339350762 127.55004339350762 0 0 0 86.70983221782419,6.894402250986211 L 86.01787094941311,3.975294578594025 L 93.63641033147447,5.766343903425709 L 87.6324472423723,10.786545814175792 L 86.94048597396122,7.867438141783605 A 128.55004339350762 128.55004339350762 0 0 1 65.1236165085052,11.094766124168814"/><text text-anchor="middle" pointer-events="none" font-size="8px" fill="#000000" x="55.430081443619" y="13.820168174559598" font-family="sans-serif">trek</text></g><g class="relationship" transform="translate(32.24331996838771 276.17482535708905) rotate(307.8982471954915)"><path class="outline" fill="#A5ABB6" stroke="none" d="M 25 0.5 L 38.41032736910568 0.5 L 38.41032736910568 -0.5 L 25 -0.5 Z M 57.74626486910568 0.5 L 71.15659223821136 0.5 L 71.15659223821136 3.5 L 78.15659223821136 0 L 71.15659223821136 -3.5 L 71.15659223821136 -0.5 L 57.74626486910568 -0.5 Z"/><text text-anchor="middle" pointer-events="none" font-size="8px" fill="#000000" x="48.07829611910568" y="3" font-family="sans-serif">trek</text></g><g class="relationship" transform="translate(32.24331996838771 276.17482535708905) rotate(307.8982471954915)"><path class="outline" fill="#A5ABB6" stroke="none" d="M 21.40063509461097,-12.933012701892217 L 21.90063509461097,-12.06698729810778 A 55.48741606893708 55.48741606893708 0 0 1 25.659591966730805,-14.049313085524155 L 25.227336279557512,-14.951064171415567 A 56.48741606893708 56.48741606893708 0 0 0 21.40063509461097,-12.933012701892217 Z M 70.7499324895174,-16.409870992262107 L 70.37629901804333,-15.482294564686342 A 55.48741606893708 55.48741606893708 0 0 1 74.25446341641292,-13.744706237972734 L 72.92388495209457,-11.055921949434103 L 80.75005650038946,-11.088153869319664 L 76.02856803550407,-17.32975195602424 L 74.69798957118572,-14.64096766748561 A 56.48741606893708 56.48741606893708 0 0 0 70.7499324895174,-16.409870992262107"/><text text-anchor="middle" pointer-events="none" font-size="8px" fill="#000000" x="47.851103589115795" y="-16.97216595954577" font-family="sans-serif">twowheeler</text></g><g class="relationship" transform="translate(32.24331996838771 276.17482535708905) rotate(358.63858443794095)"><path class="outline" fill="#A5ABB6" stroke="none" d="M 25 0.5 L 49.11789293751006 0.5 L 49.11789293751006 -0.5 L 25 -0.5 Z M 68.45383043751005 0.5 L 92.57172337502011 0.5 L 92.57172337502011 3.5 L 99.57172337502011 0 L 92.57172337502011 -3.5 L 92.57172337502011 -0.5 L 68.45383043751005 -0.5 Z"/><text text-anchor="middle" pointer-events="none" font-size="8px" fill="#000000" x="58.78586168751006" y="3" font-family="sans-serif">trek</text></g><g class="relationship" transform="translate(156.77987878240342 273.215132233514) rotate(293.651778268095)"><path class="outline" fill="#A5ABB6" stroke="none" d="M 25 0.5 L 47.479562701655986 0.5 L 47.479562701655986 -0.5 L 25 -0.5 Z M 66.815500201656 0.5 L 89.29506290331197 0.5 L 89.29506290331197 3.5 L 96.29506290331197 0 L 89.29506290331197 -3.5 L 89.29506290331197 -0.5 L 66.815500201656 -0.5 Z"/><text text-anchor="middle" pointer-events="none" font-size="8px" fill="#000000" x="57.147531451655986" y="3" font-family="sans-serif">trek</text></g></g><g class="layer nodes"><g class="node" transform="translate(78.9996836407131,-29.991284329155036)"><circle class="outline" cx="0" cy="0" r="25" fill="#F16667" stroke="#eb2728" stroke-width="2px"/><text text-anchor="middle" pointer-events="none" font-family="sans-serif" dy="1.5625" font-size="25" fill="#FFFFFF"/><text text-anchor="middle" pointer-events="none" x="0" y="5" font-size="10px" fill="#FFFFFF" font-family="sans-serif"> Darjeeling</text></g><g class="node" transform="translate(205.44066667037532,162.10878674937788)"><circle class="outline" cx="0" cy="0" r="25" fill="#8DCC93" stroke="#5db665" stroke-width="2px"/><text text-anchor="middle" pointer-events="none" font-family="sans-serif" dy="1.5625" font-size="25" fill="#2A2C34"/><text text-anchor="middle" pointer-events="none" x="0" y="5" font-size="10px" fill="#2A2C34" font-family="sans-serif"> Sandak…</text></g><g class="node" transform="translate(95.60839766113484,194.77366166029213)"><circle class="outline" cx="0" cy="0" r="25" fill="#D9C8AE" stroke="#c0a378" stroke-width="2px"/><text text-anchor="middle" pointer-events="none" font-family="sans-serif" dy="1.5625" font-size="25" fill="#2A2C34"/><text text-anchor="middle" pointer-events="none" x="0" y="5" font-size="10px" fill="#2A2C34" font-family="sans-serif"> Gurdum</text></g><g class="node" transform="translate(-2.6472790179883043,-64.54385765659481)"><circle class="outline" cx="0" cy="0" r="25" fill="#D9C8AE" stroke="#c0a378" stroke-width="2px"/><text text-anchor="middle" pointer-events="none" font-family="sans-serif" dy="1.5625" font-size="25" fill="#2A2C34"/><text text-anchor="middle" pointer-events="none" x="0" y="5" font-size="10px" fill="#2A2C34" font-family="sans-serif"> Tumbling</text></g><g class="node" transform="translate(130.4070183292357,-68.29139471215296)"><circle class="outline" cx="0" cy="0" r="25" fill="#D9C8AE" stroke="#c0a378" stroke-width="2px"/><text text-anchor="middle" pointer-events="none" font-family="sans-serif" dy="1.5625" font-size="25" fill="#2A2C34"/><text text-anchor="middle" pointer-events="none" x="0" y="5" font-size="10px" fill="#2A2C34" font-family="sans-serif"> Gairibus</text></g><g class="node" transform="translate(146.5993938513283,55.24548405047181)"><circle class="outline" cx="0" cy="0" r="25" fill="#D9C8AE" stroke="#c0a378" stroke-width="2px"/><text text-anchor="middle" pointer-events="none" font-family="sans-serif" dy="1.5625" font-size="25" fill="#2A2C34"/><text text-anchor="middle" pointer-events="none" x="0" y="5" font-size="10px" fill="#2A2C34" font-family="sans-serif"> BhikeBh…</text></g><g class="node" transform="translate(16.315987035169314,51.47969769596086)"><circle class="outline" cx="0" cy="0" r="25" fill="#F16667" stroke="#eb2728" stroke-width="2px"/><text text-anchor="middle" pointer-events="none" font-family="sans-serif" dy="1.5625" font-size="25" fill="#FFFFFF"/><text text-anchor="middle" pointer-events="none" x="0" y="5" font-size="10px" fill="#FFFFFF" font-family="sans-serif"> Rimbik</text></g><g class="node" transform="translate(-13.123309493437842,167.28508779691794)"><circle class="outline" cx="0" cy="0" r="25" fill="#D9C8AE" stroke="#c0a378" stroke-width="2px"/><text text-anchor="middle" pointer-events="none" font-family="sans-serif" dy="1.5625" font-size="25" fill="#2A2C34"/><text text-anchor="middle" pointer-events="none" x="0" y="5" font-size="10px" fill="#2A2C34" font-family="sans-serif"> Sirikhola</text></g><g class="node" transform="translate(32.24331996838771,276.17482535708905)"><circle class="outline" cx="0" cy="0" r="25" fill="#D9C8AE" stroke="#c0a378" stroke-width="2px"/><text text-anchor="middle" pointer-events="none" font-family="sans-serif" dy="1.5625" font-size="25" fill="#2A2C34"/><text text-anchor="middle" pointer-events="none" x="0" y="5" font-size="10px" fill="#2A2C34" font-family="sans-serif"> Rammam</text></g><g class="node" transform="translate(156.77987878240342,273.215132233514)"><circle class="outline" cx="0" cy="0" r="25" fill="#8DCC93" stroke="#5db665" stroke-width="2px"/><text text-anchor="middle" pointer-events="none" font-family="sans-serif" dy="1.5625" font-size="25" fill="#2A2C34"/><text text-anchor="middle" pointer-events="none" x="0" y="5" font-size="10px" fill="#2A2C34" font-family="sans-serif"> Sabargr…</text></g></g></svg>